<svg xmlns="http://www.w3.org/2000/svg" shape-rendering="geometricPrecision" text-rendering="geometricPrecision" image-rendering="optimizeQuality" fill-rule="evenodd" clip-rule="evenodd" viewBox="0 0 512 467.36"><g fill-rule="nonzero"><path fill="#333" d="M58.328 0h281.808c-12.342 13.848-23.286 27.376-32.931 40.444H58.328c-4.93 0-9.416 2.01-12.656 5.227a17.946 17.946 0 00-5.228 12.657v350.705c0 4.869 2.041 9.331 5.289 12.58 3.263 3.263 7.749 5.303 12.595 5.303h395.345c4.822 0 9.293-2.055 12.564-5.326 3.271-3.271 5.319-7.735 5.319-12.557V173.301A949.318 949.318 0 00512 155.387v253.646c0 15.988-6.595 30.585-17.164 41.155-10.562 10.562-25.175 17.172-41.163 17.172H58.328c-15.996 0-30.624-6.58-41.194-17.149C6.596 439.672 0 425.082 0 409.033V58.328c0-16.012 6.565-30.57 17.112-41.132l.084-.084C27.758 6.565 42.332 0 58.328 0z"/><path fill="#E60000" d="M133.575 346.12c18.954-37.249 49.386-79.673 85.902-120.988-33.864-33.099-68.76-63.815-101.133-89.447-4.792-3.783-5.61-10.761-1.826-15.553a10.965 10.965 0 016.572-3.997c25.946-5.128 46.451-2.69 64.755 5.327 17.86 7.833 32.992 20.78 48.843 37.127 6.832 7.054 14.49 15.285 22.629 24.334a903.03 903.03 0 0118.495-17.845c57.166-53.589 121.141-99.314 177.703-120.56 5.732-2.156 12.136.733 14.291 6.465a11.11 11.11 0 01-2.889 12.098c-23.515 25.091-50.562 51.511-78.786 79.077-29.148 28.476-59.565 58.197-87.904 88.118a1859.92 1859.92 0 0119.779 24.127c26.099 32.404 49.929 64.319 62.668 85.496 3.141 5.251 1.43 12.068-3.821 15.209a11.03 11.03 0 01-7.482 1.421l-34.888-4.425a11.052 11.052 0 01-7.451-4.318c-19.359-25.663-41.614-51.793-65.305-77.303-25.518 29.569-47.513 58.87-62.73 86.895-2.063 3.798-6.037 5.9-10.088 5.777l-47.62-.932c-6.114-.092-10.99-5.136-10.898-11.25a11.256 11.256 0 011.184-4.853z"/></g></svg>
